<svg xmlns="http://www.w3.org/2000/svg" x="0px" y="0px"
width="128" height="128"
viewBox="0 0 226 226"
style=" fill:#000000;"><g fill="none" fill-rule="nonzero" stroke="none" stroke-width="1" stroke-linecap="butt" stroke-linejoin="miter" stroke-miterlimit="10" stroke-dasharray="" stroke-dashoffset="0" font-family="none" font-weight="none" font-size="none" text-anchor="none" style="mix-blend-mode: normal"><path d="M0,226v-226h226v226z" fill="none"></path><path d="M113,188.71c-41.81348,0 -75.71,-33.89652 -75.71,-75.71v0c0,-41.81348 33.89652,-75.71 75.71,-75.71h0c41.81348,0 75.71,33.89652 75.71,75.71v0c0,41.81348 -33.89652,75.71 -75.71,75.71z" fill="#ffffff"></path><g fill="#cc0000"><path d="M113,21.1875c-50.70522,0 -91.8125,41.10728 -91.8125,91.8125c0,43.35316 30.058,79.665 70.46609,89.29119c-2.0905,-0.49791 -4.16334,-1.05584 -6.19734,-1.69147v-21.03566c0,0 -3.44297,1.14766 -8.03359,1.14766c-12.84316,0 -18.17887,-11.45891 -19.51016,-17.21484c-0.80866,-3.50653 -2.92034,-6.82944 -5.18741,-8.85991c-2.70847,-2.41538 -3.97619,-2.42244 -3.99384,-3.24875c-0.03531,-1.73384 2.32356,-1.66322 3.44297,-1.66322c5.73828,0 10.08878,6.10553 12.10866,9.26247c5.00378,7.79347 10.37481,9.10003 13.13978,9.10003c3.44297,0 6.41628,-0.51556 8.46441,-1.50431c0.94638,-6.667 3.91263,-12.60656 8.75044,-16.85819c-21.53003,-4.30459 -36.725,-16.65338 -36.725,-36.725c0,-10.3395 4.14922,-19.84209 11.06341,-27.5155c-0.70625,-2.00222 -1.88216,-6.05256 -1.88216,-12.65247c0,-4.36109 0.30369,-9.71447 2.29531,-14.91953c0,0 13.09387,0.09181 25.44266,11.78731c5.69944,-1.65969 11.79791,-2.60606 18.16828,-2.60606c6.37038,0 12.46884,0.94638 18.16828,2.60606c12.34878,-11.6955 25.44266,-11.78731 25.44266,-11.78731c2.00222,5.20506 2.29531,10.55844 2.29531,14.91953c0,7.11547 -0.94637,11.26469 -1.5255,13.05503c6.70231,7.60278 10.70675,16.95706 10.70675,27.11294c0,20.07162 -15.19497,32.42041 -36.725,36.725c5.74887,5.04969 9.18125,12.40528 9.18125,20.65781v30.21691c-2.034,0.63916 -4.10331,1.19356 -6.19734,1.69147c40.40809,-9.62619 70.46609,-45.93803 70.46609,-89.29119c0,-50.70522 -41.10728,-91.8125 -91.8125,-91.8125zM119.40216,204.56531c-2.11522,0.14831 -4.24809,0.24719 -6.40216,0.24719c2.15406,0 4.28341,-0.10241 6.40216,-0.24719zM133.43181,202.50306c-4.11038,0.93578 -8.32316,1.59259 -12.62422,1.95631c4.30106,-0.36372 8.51384,-1.02406 12.62422,-1.95631zM113,204.8125c-2.15406,0 -4.28694,-0.09887 -6.40216,-0.24719c2.11875,0.14478 4.24809,0.24719 6.40216,0.24719zM105.18888,204.45938c-4.29753,-0.36372 -8.51384,-1.02053 -12.62069,-1.95631c4.11038,0.93225 8.32316,1.59259 12.62069,1.95631z"></path></g></g></svg>
